<svg width="100" height="100" viewBox="0 0 100 100" fill="none" xmlns="http://www.w3.org/2000/svg">
<path d="M50 0C22.4211 0 0 22.4211 0 50C0 77.579 22.4211 100 50 100C77.579 100 100 77.579 100 50C100 22.4211 77.579 0 50 0ZM50 95.2632C25.0526 95.2632 4.73684 74.9474 4.73684 50C4.73684 25.0526 25.0526 4.73684 50 4.73684C74.9474 4.73684 95.2632 24.9474 95.2632 50C95.2632 74.9474 74.9474 95.2632 50 95.2632Z" fill="#FDFAF5"/>
<path d="M57.1576 48.8421C57.7892 51.1579 64.7366 51.579 68.8418 51.579C72.105 51.579 80.2102 51.2632 84.7366 48.5263C87.3681 46.8421 88.4208 44 87.5787 40.6316C85.6839 33.2632 81.9997 32.2105 79.8945 32.2105C78.7366 32.2105 77.8945 32.6316 77.7892 32.6316C74.3155 34 68.8418 37.579 65.1576 40.3158C56.526 46.6316 56.9471 48.1053 57.1576 48.8421Z" fill="#FDFAF5"/>
<path d="M84.6313 56.1053C80.8419 53.7895 73.9998 53.5789 71.1577 53.5789C69.684 53.5789 62.105 53.6842 61.5787 55.5789C60.8419 58.2105 75.1577 67.5789 79.0524 69.1579C79.1577 69.1579 79.7892 69.4737 80.7366 69.4737C82.4208 69.4737 85.3682 68.5263 86.8419 62.5263C87.5787 59.6842 86.7366 57.3684 84.6313 56.1053Z" fill="#FDFAF5"/>
<path d="M42.6315 51.4737C41.9999 49.1579 33.6841 48.9474 31.1578 48.9474C27.8946 48.9474 19.6841 49.2632 15.2631 52C12.7368 53.579 11.6841 56.3158 12.5262 59.6842C14.3157 66.9474 17.9999 68 19.8946 68C21.0525 68 21.7894 67.6842 21.8946 67.6842C26.9473 65.6842 43.4736 54.7369 42.6315 51.4737Z" fill="#FDFAF5"/>
<path d="M14.632 44.8421C18.4215 47.1579 25.2636 47.3684 28.1057 47.3684C29.5794 47.3684 37.1583 47.2631 37.6846 45.3684C38.4215 42.7368 24.1057 33.3684 20.211 31.7895C20.1057 31.7895 19.4741 31.4737 18.5267 31.4737C16.8425 31.4737 13.8952 32.421 12.4215 38.421C11.6846 41.2631 12.5267 43.5789 14.632 44.8421Z" fill="#FDFAF5"/>
<path d="M53.0526 44.3158C53.2631 44.4211 53.4736 44.4211 53.7894 44.4211C57.3684 44.4211 74.2105 31.6842 75.3684 26.2105C75.5789 25.5789 76.5263 20.3158 67.4736 16C64.1052 14.4211 61.2631 13.5789 58.8421 13.5789C55.2631 13.5789 53.8947 15.4737 53.5789 15.8947C50.5263 19.7895 50.421 36.1053 51.6842 41.7895C51.9999 43.2632 52.421 44 53.0526 44.3158Z" fill="#FDFAF5"/>
<path d="M46.8421 44.9473C47.1579 44.9473 47.4736 44.8421 47.6842 44.7368C48.3158 44.421 48.6315 43.5789 48.9473 42.1052C49.8947 36.2105 48.5263 19.6842 45.1579 15.8947C44.8421 15.4737 43.5789 13.8947 40.421 13.8947C37.8947 13.8947 34.7368 14.9473 31.1579 16.9473C22.2105 22 23.5789 27.2631 23.8947 27.8947C25.1579 33.2631 42.9473 44.9473 46.8421 44.9473Z" fill="#FDFAF5"/>
<path d="M53.9998 56.421C53.7892 56.421 53.4734 56.421 53.2629 56.5263C52.6313 56.8421 52.2103 57.5789 51.8945 58.9473C50.6313 64.5263 50.8419 80.2105 53.7892 84.1052C54.105 84.6315 55.3682 86.421 58.8419 86.421C61.1577 86.421 63.9998 85.5789 67.2629 84.1052C76.105 79.8947 75.1577 74.8421 74.9471 74.1052C73.8945 68.7368 57.4734 56.421 53.9998 56.421Z" fill="#FDFAF5"/>
<path d="M47.7892 55.2631C47.5787 55.1579 47.2629 55.0526 46.9471 55.0526C43.0524 55.0526 25.6839 67.3684 24.4208 72.8421C24.2102 73.4737 22.9471 78.8421 32.105 83.5789C35.6839 85.4737 38.7366 86.3158 41.1576 86.3158C44.526 86.3158 45.8945 84.6316 46.2103 84.1052C49.4734 80.2105 50.2102 63.6842 49.0524 57.7895C48.7366 56.421 48.4208 55.5789 47.7892 55.2631Z" fill="#FDFAF5"/>
</svg>
